<mxfile host="Electron" modified="2024-04-22T12:57:24.704Z" agent="Mozilla/5.0 (Windows NT 10.0; Win64; x64) AppleWebKit/537.36 (KHTML, like Gecko) draw.io/23.1.5 Chrome/120.0.6099.109 Electron/28.1.0 Safari/537.36" etag="Knals-Fa0GWGcayrM1_0" version="23.1.5" type="device">
  <diagram name="Page-1" id="2YBvvXClWsGukQMizWep">
    <mxGraphModel dx="1424" dy="833" grid="1" gridSize="10" guides="1" tooltips="1" connect="1" arrows="1" fold="1" page="1" pageScale="1" pageWidth="850" pageHeight="1100" math="0" shadow="0">
      <root>
        <mxCell id="0" />
        <mxCell id="1" parent="0" />
        <mxCell id="EX1DVpAlgEGeSkpOyH1c-1" value="System Handler" style="shape=umlLifeline;perimeter=lifelinePerimeter;whiteSpace=wrap;container=1;dropTarget=0;collapsible=0;recursiveResize=0;outlineConnect=0;portConstraint=eastwest;newEdgeStyle={&quot;edgeStyle&quot;:&quot;elbowEdgeStyle&quot;,&quot;elbow&quot;:&quot;vertical&quot;,&quot;curved&quot;:0,&quot;rounded&quot;:0};participant=umlActor;verticalAlign=bottom;labelPosition=center;verticalLabelPosition=top;align=center;size=65;" parent="1" vertex="1">
          <mxGeometry x="20" y="360" width="35" height="580" as="geometry" />
        </mxCell>
        <mxCell id="EX1DVpAlgEGeSkpOyH1c-2" value="MonitoringHandler" style="shape=umlLifeline;perimeter=lifelinePerimeter;whiteSpace=wrap;container=1;dropTarget=0;collapsible=0;recursiveResize=0;outlineConnect=0;portConstraint=eastwest;newEdgeStyle={&quot;edgeStyle&quot;:&quot;elbowEdgeStyle&quot;,&quot;elbow&quot;:&quot;vertical&quot;,&quot;curved&quot;:0,&quot;rounded&quot;:0};size=65;" parent="1" vertex="1">
          <mxGeometry x="220" y="360" width="156" height="580" as="geometry" />
        </mxCell>
        <mxCell id="EX1DVpAlgEGeSkpOyH1c-16" value="" style="points=[];perimeter=orthogonalPerimeter;outlineConnect=0;targetShapes=umlLifeline;portConstraint=eastwest;newEdgeStyle={&quot;edgeStyle&quot;:&quot;elbowEdgeStyle&quot;,&quot;elbow&quot;:&quot;vertical&quot;,&quot;curved&quot;:0,&quot;rounded&quot;:0}" parent="EX1DVpAlgEGeSkpOyH1c-2" vertex="1">
          <mxGeometry x="73" y="141" width="10" height="390" as="geometry" />
        </mxCell>
        <mxCell id="EX1DVpAlgEGeSkpOyH1c-3" value="BlueprintPersistenceService" style="shape=umlLifeline;perimeter=lifelinePerimeter;whiteSpace=wrap;container=1;dropTarget=0;collapsible=0;recursiveResize=0;outlineConnect=0;portConstraint=eastwest;newEdgeStyle={&quot;edgeStyle&quot;:&quot;elbowEdgeStyle&quot;,&quot;elbow&quot;:&quot;vertical&quot;,&quot;curved&quot;:0,&quot;rounded&quot;:0};size=65;" parent="1" vertex="1">
          <mxGeometry x="465" y="360" width="212" height="580" as="geometry" />
        </mxCell>
        <mxCell id="EX1DVpAlgEGeSkpOyH1c-4" value="" style="points=[];perimeter=orthogonalPerimeter;outlineConnect=0;targetShapes=umlLifeline;portConstraint=eastwest;newEdgeStyle={&quot;edgeStyle&quot;:&quot;elbowEdgeStyle&quot;,&quot;elbow&quot;:&quot;vertical&quot;,&quot;curved&quot;:0,&quot;rounded&quot;:0}" parent="EX1DVpAlgEGeSkpOyH1c-3" vertex="1">
          <mxGeometry x="101" y="191" width="10" height="52" as="geometry" />
        </mxCell>
        <mxCell id="EX1DVpAlgEGeSkpOyH1c-5" value="DataProcessor" style="shape=umlLifeline;perimeter=lifelinePerimeter;whiteSpace=wrap;container=1;dropTarget=0;collapsible=0;recursiveResize=0;outlineConnect=0;portConstraint=eastwest;newEdgeStyle={&quot;edgeStyle&quot;:&quot;elbowEdgeStyle&quot;,&quot;elbow&quot;:&quot;vertical&quot;,&quot;curved&quot;:0,&quot;rounded&quot;:0};size=65;" parent="1" vertex="1">
          <mxGeometry x="727" y="360" width="150" height="580" as="geometry" />
        </mxCell>
        <mxCell id="EX1DVpAlgEGeSkpOyH1c-6" value="" style="points=[];perimeter=orthogonalPerimeter;outlineConnect=0;targetShapes=umlLifeline;portConstraint=eastwest;newEdgeStyle={&quot;edgeStyle&quot;:&quot;elbowEdgeStyle&quot;,&quot;elbow&quot;:&quot;vertical&quot;,&quot;curved&quot;:0,&quot;rounded&quot;:0}" parent="EX1DVpAlgEGeSkpOyH1c-5" vertex="1">
          <mxGeometry x="70" y="295" width="10" height="52" as="geometry" />
        </mxCell>
        <mxCell id="EX1DVpAlgEGeSkpOyH1c-7" value="WebSocketService" style="shape=umlLifeline;perimeter=lifelinePerimeter;whiteSpace=wrap;container=1;dropTarget=0;collapsible=0;recursiveResize=0;outlineConnect=0;portConstraint=eastwest;newEdgeStyle={&quot;edgeStyle&quot;:&quot;elbowEdgeStyle&quot;,&quot;elbow&quot;:&quot;vertical&quot;,&quot;curved&quot;:0,&quot;rounded&quot;:0};size=65;" parent="1" vertex="1">
          <mxGeometry x="927" y="360" width="150" height="580" as="geometry" />
        </mxCell>
        <mxCell id="EX1DVpAlgEGeSkpOyH1c-8" value="loop" style="shape=umlFrame;pointerEvents=0;dropTarget=0;strokeColor=#000000;height=20;width=40" parent="1" vertex="1">
          <mxGeometry x="286" y="736" width="729" height="135" as="geometry" />
        </mxCell>
        <mxCell id="EX1DVpAlgEGeSkpOyH1c-9" value="[for each blueprint in blueprints list]" style="text;strokeColor=none;fillColor=none;align=center;verticalAlign=middle;whiteSpace=wrap;" parent="EX1DVpAlgEGeSkpOyH1c-8" vertex="1">
          <mxGeometry x="40" width="689" height="27.551020408163268" as="geometry" />
        </mxCell>
        <mxCell id="EX1DVpAlgEGeSkpOyH1c-10" value="1. handle()" style="verticalAlign=bottom;endArrow=block;edgeStyle=elbowEdgeStyle;elbow=vertical;curved=0;rounded=0;" parent="1" edge="1">
          <mxGeometry x="0.0034" relative="1" as="geometry">
            <Array as="points">
              <mxPoint x="207" y="502" />
            </Array>
            <mxPoint x="37.866666666666674" y="502" as="sourcePoint" />
            <mxPoint x="293" y="502" as="targetPoint" />
            <mxPoint as="offset" />
          </mxGeometry>
        </mxCell>
        <mxCell id="EX1DVpAlgEGeSkpOyH1c-11" value="2. getAllBlueprints()" style="verticalAlign=bottom;endArrow=block;edgeStyle=elbowEdgeStyle;elbow=vertical;curved=0;rounded=0;" parent="1" target="EX1DVpAlgEGeSkpOyH1c-4" edge="1">
          <mxGeometry x="0.0013" relative="1" as="geometry">
            <Array as="points">
              <mxPoint x="447" y="551" />
            </Array>
            <mxPoint as="offset" />
            <mxPoint x="303" y="550.9999999999998" as="sourcePoint" />
          </mxGeometry>
        </mxCell>
        <mxCell id="EX1DVpAlgEGeSkpOyH1c-12" value="3. return blueprints" style="verticalAlign=bottom;endArrow=block;edgeStyle=elbowEdgeStyle;elbow=vertical;curved=0;rounded=0;dashed=1;" parent="1" source="EX1DVpAlgEGeSkpOyH1c-4" edge="1">
          <mxGeometry x="0.0013" relative="1" as="geometry">
            <Array as="points">
              <mxPoint x="445" y="603" />
            </Array>
            <mxPoint as="offset" />
            <mxPoint x="303" y="603" as="targetPoint" />
          </mxGeometry>
        </mxCell>
        <mxCell id="EX1DVpAlgEGeSkpOyH1c-13" value="4. process(plcData, blueprints)" style="verticalAlign=bottom;endArrow=block;edgeStyle=elbowEdgeStyle;elbow=vertical;curved=0;rounded=0;" parent="1" target="EX1DVpAlgEGeSkpOyH1c-6" edge="1">
          <mxGeometry relative="1" as="geometry">
            <Array as="points">
              <mxPoint x="563" y="655" />
            </Array>
            <mxPoint x="303" y="655" as="sourcePoint" />
          </mxGeometry>
        </mxCell>
        <mxCell id="EX1DVpAlgEGeSkpOyH1c-14" value="5. return processedData" style="verticalAlign=bottom;endArrow=block;edgeStyle=elbowEdgeStyle;elbow=vertical;curved=0;rounded=0;dashed=1;" parent="1" source="EX1DVpAlgEGeSkpOyH1c-6" edge="1">
          <mxGeometry relative="1" as="geometry">
            <Array as="points">
              <mxPoint x="560" y="707" />
            </Array>
            <mxPoint x="303" y="707" as="targetPoint" />
          </mxGeometry>
        </mxCell>
        <mxCell id="EX1DVpAlgEGeSkpOyH1c-15" value="6. get then send processedData of the blueprint" style="verticalAlign=bottom;endArrow=block;edgeStyle=elbowEdgeStyle;elbow=vertical;curved=0;rounded=0;" parent="1" edge="1">
          <mxGeometry relative="1" as="geometry">
            <Array as="points">
              <mxPoint x="663" y="814" />
            </Array>
            <mxPoint x="303" y="814" as="sourcePoint" />
            <mxPoint x="997" y="814" as="targetPoint" />
          </mxGeometry>
        </mxCell>
        <mxCell id="EX1DVpAlgEGeSkpOyH1c-17" value="" style="points=[];perimeter=orthogonalPerimeter;outlineConnect=0;targetShapes=umlLifeline;portConstraint=eastwest;newEdgeStyle={&quot;edgeStyle&quot;:&quot;elbowEdgeStyle&quot;,&quot;elbow&quot;:&quot;vertical&quot;,&quot;curved&quot;:0,&quot;rounded&quot;:0}" parent="1" vertex="1">
          <mxGeometry x="997" y="814" width="10" height="27" as="geometry" />
        </mxCell>
        <mxCell id="tsL_37fHhpiV8c0ologK-4" value="" style="points=[];perimeter=orthogonalPerimeter;outlineConnect=0;targetShapes=umlLifeline;portConstraint=eastwest;newEdgeStyle={&quot;edgeStyle&quot;:&quot;elbowEdgeStyle&quot;,&quot;elbow&quot;:&quot;vertical&quot;,&quot;curved&quot;:0,&quot;rounded&quot;:0}" parent="1" vertex="1">
          <mxGeometry x="32.5" y="450" width="10" height="470" as="geometry" />
        </mxCell>
        <mxCell id="tsL_37fHhpiV8c0ologK-5" value="" style="group" parent="1" vertex="1" connectable="0">
          <mxGeometry x="10" y="470" width="1020" height="430" as="geometry" />
        </mxCell>
        <mxCell id="tsL_37fHhpiV8c0ologK-1" value="loop" style="shape=umlFrame;pointerEvents=0;dropTarget=0;strokeColor=#000000;height=20;width=40;movable=1;resizable=1;rotatable=1;deletable=1;editable=1;locked=0;connectable=1;" parent="tsL_37fHhpiV8c0ologK-5" vertex="1">
          <mxGeometry width="1020" height="430" as="geometry" />
        </mxCell>
        <mxCell id="tsL_37fHhpiV8c0ologK-3" value="[for every second]" style="text;strokeColor=none;fillColor=none;align=center;verticalAlign=middle;whiteSpace=wrap;movable=1;resizable=1;rotatable=1;deletable=1;editable=1;locked=0;connectable=1;" parent="tsL_37fHhpiV8c0ologK-5" vertex="1">
          <mxGeometry width="1020" height="27.55" as="geometry" />
        </mxCell>
      </root>
    </mxGraphModel>
  </diagram>
</mxfile>
